<?xml version="1.0" encoding="UTF-8"?>
<svg version="1.1" xmlns="http://www.w3.org/2000/svg" width="512" height="512">
<path d="M0 0 C0.91297852 0.16628906 1.82595703 0.33257812 2.76660156 0.50390625 C44.3986228 8.16363077 83.16052206 26.40624883 116 53 C116.54446777 53.44005371 117.08893555 53.88010742 117.64990234 54.33349609 C131.72173929 65.81174863 144.93680647 78.57719064 156 93 C156.75925781 93.93070312 157.51851563 94.86140625 158.30078125 95.8203125 C166.14965998 105.60950415 172.61917978 116.21296474 179 127 C179.58394531 127.97743164 179.58394531 127.97743164 180.1796875 128.97460938 C195.3115154 154.60200963 204.68826154 184.6455857 209 214 C209.17732666 215.20462891 209.35465332 216.40925781 209.53735352 217.65039062 C211.136325 229.30767354 211.3584053 240.87186098 211.3125 252.625 C211.30976578 254.07983292 211.30976578 254.07983292 211.30697632 255.5640564 C211.26159053 269.91321045 210.76572938 283.88280259 208 298 C207.83371094 298.91297852 207.66742188 299.82595703 207.49609375 300.76660156 C199.2897169 345.36977944 179.01435466 387.06279656 149 421 C148.27554687 421.8353125 147.55109375 422.670625 146.8046875 423.53125 C137.0599286 434.60647413 126.66037586 444.95114912 115 454 C114.06542969 454.763125 113.13085938 455.52625 112.16796875 456.3125 C79.90395064 482.15684827 40.47895618 498.62720036 0 506 C-0.83563477 506.16371094 -1.67126953 506.32742188 -2.53222656 506.49609375 C-30.24163521 511.78656862 -62.35093304 511.41678597 -90 506 C-90.91297852 505.83371094 -91.82595703 505.66742188 -92.76660156 505.49609375 C-134.3986228 497.83636923 -173.16052206 479.59375117 -206 453 C-206.54446777 452.55994629 -207.08893555 452.11989258 -207.64990234 451.66650391 C-221.72173929 440.18825137 -234.93680647 427.42280936 -246 413 C-246.75925781 412.06929688 -247.51851562 411.13859375 -248.30078125 410.1796875 C-274.1596216 377.92831086 -290.62794761 338.47485354 -298 298 C-298.16371094 297.16436523 -298.32742188 296.32873047 -298.49609375 295.46777344 C-303.78656862 267.75836479 -303.41678597 235.64906696 -298 208 C-297.83371094 207.08702148 -297.66742188 206.17404297 -297.49609375 205.23339844 C-289.83636923 163.6013772 -271.59375117 124.83947794 -245 92 C-244.55994629 91.45553223 -244.11989258 90.91106445 -243.66650391 90.35009766 C-232.18825137 76.27826071 -219.42280936 63.06319353 -205 52 C-204.06929688 51.24074219 -203.13859375 50.48148438 -202.1796875 49.69921875 C-169.92831086 23.8403784 -130.47485354 7.37205239 -90 0 C-89.16436523 -0.16371094 -88.32873047 -0.32742188 -87.46777344 -0.49609375 C-59.75836479 -5.78656862 -27.64906696 -5.41678597 0 0 Z M-140 59 C-140.7110791 59.34256836 -141.4221582 59.68513672 -142.15478516 60.03808594 C-153.56852867 65.61121303 -163.85057617 72.38451159 -174 80 C-174.93457031 80.69996094 -175.86914062 81.39992187 -176.83203125 82.12109375 C-183.93726964 87.64228869 -190.4825062 93.80679126 -197 100 C-197.82886719 100.78632812 -198.65773437 101.57265625 -199.51171875 102.3828125 C-205.15953275 107.88277797 -210.16617709 113.77714752 -215 120 C-215.43070801 120.55429688 -215.86141602 121.10859375 -216.30517578 121.6796875 C-240.48793806 153.05191964 -255.08417636 189.75175072 -260 229 C-260.13148438 229.99 -260.26296875 230.98 -260.3984375 232 C-264.67721511 271.78106748 -256.3421613 312.20649155 -239 348 C-238.65743164 348.7110791 -238.31486328 349.4221582 -237.96191406 350.15478516 C-232.38878697 361.56852867 -225.61548841 371.85057617 -218 382 C-217.30003906 382.93457031 -216.60007813 383.86914062 -215.87890625 384.83203125 C-210.35771131 391.93726964 -204.19320874 398.4825062 -198 405 C-196.82050781 406.24330078 -196.82050781 406.24330078 -195.6171875 407.51171875 C-190.11722203 413.15953275 -184.22285248 418.16617709 -178 423 C-177.44570312 423.43070801 -176.89140625 423.86141602 -176.3203125 424.30517578 C-144.94808036 448.48793806 -108.24824928 463.08417636 -69 468 C-67.515 468.19722656 -67.515 468.19722656 -66 468.3984375 C-26.21893252 472.67721511 14.20649155 464.3421613 50 447 C50.7110791 446.65743164 51.4221582 446.31486328 52.15478516 445.96191406 C63.56852867 440.38878697 73.85057617 433.61548841 84 426 C84.93457031 425.30003906 85.86914062 424.60007812 86.83203125 423.87890625 C93.93726964 418.35771131 100.4825062 412.19320874 107 406 C107.82886719 405.21367187 108.65773438 404.42734375 109.51171875 403.6171875 C115.15953275 398.11722203 120.16617709 392.22285248 125 386 C125.64606201 385.16855469 125.64606201 385.16855469 126.30517578 384.3203125 C150.48793806 352.94808036 165.08417636 316.24824928 170 277 C170.19722656 275.515 170.19722656 275.515 170.3984375 274 C174.67721511 234.21893252 166.3421613 193.79350845 149 158 C148.65743164 157.2889209 148.31486328 156.5778418 147.96191406 155.84521484 C142.38878697 144.43147133 135.61548841 134.14942383 128 124 C127.30003906 123.06542969 126.60007812 122.13085938 125.87890625 121.16796875 C120.35771131 114.06273036 114.19320874 107.5174938 108 101 C106.82050781 99.75669922 106.82050781 99.75669922 105.6171875 98.48828125 C100.11722203 92.84046725 94.22285248 87.83382291 88 83 C87.44570313 82.56929199 86.89140625 82.13858398 86.3203125 81.69482422 C54.94808036 57.51206194 18.24824928 42.91582364 -21 38 C-21.99 37.86851563 -22.98 37.73703125 -24 37.6015625 C-63.78106748 33.32278489 -104.20649155 41.6578387 -140 59 Z " fill="#000000" transform="translate(301,3)"/>
<path d="M0 0 C4.07733699 3.00343453 7.21919777 6.52868707 8.82421875 11.34375 C8.91549689 14.06695635 8.95023094 16.76404726 8.93774414 19.48706055 C8.93789017 20.31655212 8.93803619 21.1460437 8.93818665 22.00067139 C8.93748967 24.74396372 8.92970728 27.48718827 8.921875 30.23046875 C8.92001006 32.13190168 8.91858651 34.03333509 8.91758728 35.93476868 C8.91376811 40.94069748 8.90394291 45.9465973 8.8928833 50.95251465 C8.88265631 56.06013598 8.8780869 61.167762 8.87304688 66.27539062 C8.86232013 76.29818982 8.84525087 86.3209675 8.82421875 96.34375 C9.85881226 96.33486755 10.89340576 96.32598511 11.95935059 96.3168335 C21.72831661 96.23560705 31.49721375 96.17571719 41.26644135 96.13650131 C46.28844827 96.11566192 51.3101817 96.08741102 56.33203125 96.04199219 C61.18201878 95.99840421 66.03174389 95.97458547 70.88191223 95.96424103 C72.72862374 95.95687287 74.57532153 95.9424846 76.42192078 95.92082977 C79.01661774 95.89162318 81.61024219 95.88780113 84.20507812 95.88964844 C84.96177795 95.87526733 85.71847778 95.86088623 86.49810791 95.84606934 C92.89482963 95.89507192 98.06473484 97.90891126 102.8828125 102.16015625 C103.33785156 102.73636719 103.79289063 103.31257813 104.26171875 103.90625 C104.73480469 104.48503906 105.20789063 105.06382812 105.6953125 105.66015625 C108.97315295 110.54856191 108.30967032 116.72536199 107.82421875 122.34375 C106.2751532 128.65514546 102.55112412 131.76994387 97.23828125 135.21484375 C92.03353962 137.64877633 86.44381025 137.48520913 80.79931641 137.45727539 C80.0181546 137.45742142 79.2369928 137.45756744 78.43215942 137.4577179 C75.86750445 137.45702498 73.30292343 137.44926184 70.73828125 137.44140625 C68.9532373 137.43953986 67.16819284 137.438117 65.38314819 137.43711853 C60.6978411 137.43331075 56.01256529 137.42349538 51.32727051 137.41241455 C46.54110131 137.40216297 41.75492703 137.39761289 36.96875 137.39257812 C27.58722588 137.38187149 18.20572492 137.36481604 8.82421875 137.34375 C8.8331012 138.37834351 8.84198364 139.41293701 8.85113525 140.47888184 C8.9323617 150.24784786 8.99225156 160.016745 9.03146744 169.7859726 C9.05230683 174.80797952 9.08055773 179.82971295 9.12597656 184.8515625 C9.16956454 189.70155003 9.19338328 194.55127514 9.20372772 199.40144348 C9.21109588 201.24815499 9.22548415 203.09485278 9.24713898 204.94145203 C9.27634557 207.53614899 9.28016762 210.12977344 9.27832031 212.72460938 C9.29270142 213.4813092 9.30708252 214.23800903 9.32189941 215.01763916 C9.27281836 221.42460493 7.34488633 226.80380389 2.78125 231.40234375 C-3.2591208 235.28622516 -8.36619388 237.31824156 -15.56640625 235.859375 C-20.7528122 234.31375733 -25.22479169 232.38632264 -28.24843979 227.67093658 C-30.99766019 222.53971063 -31.73964535 218.50005597 -31.62988281 212.72460938 C-31.63046692 211.90414124 -31.63105103 211.0836731 -31.63165283 210.23834229 C-31.62888906 207.55428212 -31.59787956 204.87136365 -31.56640625 202.1875 C-31.55893775 200.31563931 -31.5532477 198.44377075 -31.54925537 196.57189941 C-31.53404695 191.66611817 -31.49480683 186.76081723 -31.45043945 181.85522461 C-31.40938297 176.84104915 -31.39122226 171.82679542 -31.37109375 166.8125 C-31.32830761 156.98937332 -31.26011481 147.16660174 -31.17578125 137.34375 C-32.65250305 137.35041183 -32.65250305 137.35041183 -34.15905762 137.35720825 C-43.45715424 137.39783045 -52.75523275 137.42777089 -62.05339813 137.44737434 C-66.83316255 137.45779161 -71.61285507 137.47191315 -76.39257812 137.49462891 C-81.00912682 137.51643076 -85.62560654 137.52833409 -90.24220276 137.53350449 C-91.99956853 137.53718709 -93.75693072 137.54437819 -95.51426697 137.55521011 C-97.98420234 137.56982274 -100.45385618 137.57172389 -102.92382812 137.57080078 C-103.643125 137.57799133 -104.36242187 137.58518188 -105.10351562 137.59259033 C-113.02957864 137.56073767 -120.38617749 136.07472486 -126.17578125 130.34375 C-130.27774183 125.12857297 -130.8039681 119.67392866 -130.55859375 113.1796875 C-129.81748421 107.68942704 -127.34910657 104.20656153 -123.23828125 100.53125 C-117.81759655 96.65933236 -113.46212616 96.05519277 -106.8972168 96.11669922 C-106.07718674 96.11640717 -105.25715668 96.11611511 -104.41227722 96.11581421 C-101.7122424 96.11720325 -99.01248639 96.13274433 -96.3125 96.1484375 C-94.43634695 96.15216915 -92.56019195 96.1550154 -90.68403625 96.15701294 C-85.75371897 96.16463746 -80.82352011 96.18427583 -75.89324951 96.2064209 C-70.85918784 96.22690476 -65.82510698 96.23602009 -60.79101562 96.24609375 C-50.91921889 96.26752281 -41.04750993 96.30164453 -31.17578125 96.34375 C-31.1846637 95.29440781 -31.19354614 94.24506561 -31.20269775 93.16392517 C-31.28387681 83.26220133 -31.34379141 73.36054525 -31.38302994 63.4585638 C-31.40388127 58.3681492 -31.4321542 53.27800382 -31.47753906 48.18774414 C-31.52108417 43.27292303 -31.54493681 38.35836045 -31.55529022 33.44336128 C-31.56266603 31.57070409 -31.57706936 29.69806062 -31.59870148 27.82551384 C-31.62785087 25.19708852 -31.63173247 22.56972374 -31.62988281 19.94116211 C-31.64426392 19.17151627 -31.65864502 18.40187042 -31.67346191 17.60890198 C-31.62671485 11.44676512 -29.82240173 7.3017376 -25.6484375 2.63671875 C-17.82732697 -3.49451194 -8.91784737 -5.06490317 0 0 Z " fill="#000000" transform="translate(267.17578125,137.65625)"/>
</svg>
