<?xml version="1.0" encoding="UTF-8"?>
<svg version="1.1" xmlns="http://www.w3.org/2000/svg" width="512" height="512">
<path d="M0 0 C1.44480057 -0.00573832 1.44480057 -0.00573832 2.91878903 -0.01159257 C6.14294669 -0.02190271 9.36692561 -0.01793414 12.59109497 -0.01396179 C14.9040951 -0.01830937 17.21709379 -0.02349267 19.53009033 -0.02944946 C25.81107982 -0.04284599 32.09200916 -0.04341737 38.37301016 -0.04088616 C43.61660469 -0.03981686 48.86018703 -0.04469879 54.10377896 -0.04949158 C67.18192892 -0.06122367 80.2600446 -0.0603604 93.33819677 -0.05393478 C104.68766553 -0.04876659 116.03704844 -0.06001909 127.38650022 -0.07903299 C139.04846615 -0.09842022 150.7103878 -0.10637452 162.37236989 -0.10290974 C168.91632593 -0.10109636 175.46020335 -0.10373863 182.00414658 -0.11762428 C188.15848637 -0.13019442 194.31265429 -0.12826605 200.46699142 -0.11521339 C202.72444212 -0.11284628 204.98190488 -0.11558709 207.23934174 -0.12383652 C210.32366037 -0.13429402 213.40740126 -0.12621089 216.49169922 -0.11352539 C217.38256757 -0.12089968 218.27343591 -0.12827396 219.19130027 -0.13587171 C225.68113176 -0.07981428 231.13811095 0.99925338 236.5798645 4.80366516 C241.67276221 10.02047766 244.20061063 14.57273193 244.54428101 21.93206787 C244.44436543 29.5292634 243.48398492 37.09415914 242.69216919 44.64375305 C242.51110581 46.40231143 242.33041619 48.16090832 242.15007019 49.91954041 C241.66064421 54.67868191 241.16515235 59.43717233 240.66790676 64.19550252 C240.35669757 67.17574313 240.04671027 70.15610833 239.73712921 73.13651848 C238.65472101 83.5556357 237.56703246 93.97418765 236.47488403 104.39228821 C235.46075173 114.06765996 234.45872013 123.74423367 233.46225333 133.42143923 C232.60331619 141.7572732 231.73542762 150.09214506 230.86081338 158.42634863 C230.33992132 163.39156928 229.82259649 168.3570955 229.31447601 173.32364082 C228.83550376 178.00252356 228.34529302 182.68010099 227.8468914 187.35695267 C227.66717957 189.06074468 227.49128707 190.76494524 227.31978798 192.46958351 C224.95248504 215.93629049 219.34233978 236.07325755 200.525177 251.61225891 C187.85239106 260.7202908 173.90337308 263.40062969 158.56277466 263.43769836 C157.37815643 263.44426956 156.19353821 263.45084076 154.97302246 263.45761108 C151.05682002 263.47730131 147.14063109 263.48901013 143.22439575 263.49897766 C141.86826941 263.50303005 140.51214326 263.50714711 139.1560173 263.51132774 C132.77654161 263.53036468 126.39707732 263.54459408 120.01757872 263.55293971 C112.69493609 263.56268121 105.37259823 263.58892555 98.05006278 263.62944061 C92.36481072 263.65979773 86.679645 263.67442729 80.9943136 263.67772073 C77.61121 263.68005063 74.2284324 263.68873599 70.84541702 263.7141819 C47.48596949 263.86571175 27.35181252 262.38560091 9.4848938 245.58833313 C4.83867488 240.97727141 1.3969764 236.04143117 -1.62716675 230.26069641 C-2.09767456 229.37253235 -2.56818237 228.48436829 -3.052948 227.56929016 C-5.83906112 221.66010039 -7.1902261 215.87500575 -8.14323425 209.46714783 C-8.27047798 208.63445016 -8.3977217 207.80175248 -8.52882129 206.94382155 C-9.79469369 198.47233131 -10.74117378 189.97631575 -11.62008667 181.45747375 C-11.79745542 179.77467074 -11.97524904 178.09191246 -12.15342712 176.40919495 C-12.6289249 171.90620229 -13.09824762 167.4025873 -13.56607223 162.89879179 C-14.05946901 158.15685135 -14.55787275 153.41543654 -15.0554657 148.67393494 C-15.88851657 140.72812742 -16.71743702 132.78189716 -17.54391479 124.83540344 C-18.49753578 115.66701347 -19.45814233 106.49937512 -20.42234725 97.33209264 C-21.3540636 88.47186041 -22.28051823 79.61108525 -23.20470619 70.75006485 C-23.59647223 66.99492978 -23.99012316 63.23999952 -24.38533592 59.48522568 C-24.85006446 55.06796379 -25.31018539 50.65024519 -25.76682091 46.23213959 C-25.93452475 44.6167276 -26.10379301 43.0014771 -26.27478409 41.38640976 C-28.82861548 17.23721974 -28.82861548 17.23721974 -23.62716675 9.26069641 C-16.71147231 1.53571858 -10.04950813 -0.04242051 0 0 Z M-5.62716675 22.26069641 C-4.76520347 36.95552076 -4.76520347 36.95552076 -3.44612122 51.59783936 C-3.37133482 52.30849485 -3.29654842 53.01915035 -3.21949577 53.75134087 C-3.14205698 54.48645456 -3.06461819 55.22156826 -2.98483276 55.97895813 C-2.82013273 57.56947659 -2.65575474 59.16002843 -2.4916687 60.75061035 C-2.05094384 65.01297784 -1.60548192 69.27483702 -1.15884137 73.53658819 C-0.78454389 77.11262189 -0.41270342 80.68890938 -0.04085869 84.26519883 C0.8365618 92.70383337 1.71778361 101.14206471 2.60159302 109.58003235 C3.5102029 118.25529729 4.41296589 126.93115631 5.31277794 135.60733783 C6.08934069 143.09346548 6.86920826 150.57924367 7.65176636 158.06474698 C8.11749537 162.51976177 8.58208254 166.97488737 9.04360771 171.43033981 C9.47728743 175.61531993 9.91513361 179.7998443 10.35608673 183.9840641 C10.51635495 185.51123455 10.67521637 187.03855345 10.83249855 188.56603432 C13.21737497 212.74358685 13.21737497 212.74358685 26.82595825 232.28804016 C37.92215031 240.88248339 50.0235897 242.56967841 63.68069458 242.53535461 C64.75221268 242.54046555 65.82373077 242.54557648 66.92771912 242.55084229 C70.4368259 242.56463515 73.94573398 242.56378918 77.4548645 242.56147766 C79.91667248 242.56537044 82.37847979 242.5697063 84.84028625 242.57446289 C89.98860862 242.58190313 95.13686238 242.5816499 100.28518677 242.57637024 C106.85155684 242.57058077 113.41764437 242.58750506 119.98396778 242.61071491 C125.0654919 242.62551533 130.14694897 242.62631534 135.22849083 242.62320518 C137.6479619 242.6237153 140.06743703 242.62889415 142.48688698 242.63901711 C169.60968442 242.82256272 169.60968442 242.82256272 192.62283325 229.63569641 C199.48986771 222.21375008 202.50077717 214.49700261 203.79006958 204.66035461 C203.91190267 203.76829724 204.03373575 202.87623987 204.15926075 201.95715046 C206.10616565 187.23601369 207.56842202 172.4502228 209.10980964 157.68236327 C209.48105372 154.13034965 209.85485843 150.57860732 210.22865897 147.02686197 C211.11002911 138.65228823 211.9875286 130.27731557 212.86233521 121.90205383 C213.76236402 113.28583263 214.66829041 104.67024612 215.57717294 96.05495471 C216.36159658 88.61784424 217.14277863 81.18039839 217.92128402 73.74266607 C218.38451873 69.31706089 218.84886962 64.89158077 219.31619835 60.46640587 C219.7541808 56.31746692 220.18808336 52.16812082 220.61888885 48.01843071 C220.77709048 46.50098045 220.93669057 44.98367519 221.097826 43.46653366 C221.31828949 41.38859308 221.53357751 39.31017629 221.74763489 37.23156738 C221.86910228 36.07157321 221.99056967 34.91157904 222.11571789 33.71643353 C222.39911781 29.90742109 222.37283325 26.08023712 222.37283325 22.26069641 C147.13283325 22.26069641 71.89283325 22.26069641 -5.62716675 22.26069641 Z " fill="#000000" transform="translate(147.62716674804688,155.7393035888672)"/>
<path d="M0 0 C0.72579254 -0.0049649 1.45158508 -0.00992981 2.19937134 -0.01504517 C4.59695391 -0.02962985 6.99447022 -0.0364643 9.39208984 -0.04199219 C11.06635539 -0.04774877 12.74062093 -0.05350644 14.41488647 -0.05926514 C17.92698472 -0.06976608 21.43906015 -0.07561399 24.95117188 -0.07910156 C29.42973322 -0.08456989 33.90798804 -0.10856597 38.38645363 -0.13707352 C41.84736988 -0.15579515 45.30821389 -0.16091064 48.76917648 -0.16243744 C50.41883384 -0.16544546 52.06849049 -0.17341071 53.71809769 -0.18662262 C69.1279572 -0.30118457 81.31507436 2.02825057 92.97802734 12.84863281 C98.11817038 18.25985844 102.02945175 24.87241846 103.72802734 32.16113281 C105.17715767 32.16327034 105.17715767 32.16327034 106.65556335 32.16545105 C115.76352923 32.18212622 124.87104861 32.22491548 133.97877789 32.29322338 C138.66112857 32.32750301 143.34315265 32.35260485 148.02563477 32.35668945 C152.54522698 32.36097035 157.06408232 32.38941529 161.5834446 32.43456459 C163.30695108 32.44754635 165.03054573 32.45184485 166.75409508 32.44728661 C169.17028572 32.44238513 171.58431887 32.4684489 174.00024414 32.50170898 C174.71162537 32.49308334 175.42300659 32.4844577 176.15594482 32.47557068 C180.04109911 32.56513074 181.61282071 33.0658186 184.64851379 35.5773468 C187.30789624 38.88161725 187.93787759 40.3185458 187.66552734 44.47363281 C187.63330078 45.23289063 187.60107422 45.99214844 187.56787109 46.77441406 C186.2842604 50.42225654 184.0746631 52.40785296 180.72802734 54.16113281 C176.70664813 54.90153309 172.73730605 54.83576612 168.65771484 54.79605103 C166.81877655 54.80775096 166.81877655 54.80775096 164.94268799 54.81968725 C161.54686593 54.83616883 158.15242859 54.83025479 154.75669098 54.81475616 C151.09197754 54.80343923 147.42738475 54.82090699 143.76269531 54.83465576 C136.58649654 54.85688919 129.41055923 54.85208661 122.2343502 54.83759256 C116.40214263 54.82630069 110.57000834 54.82476918 104.73779297 54.83021164 C103.90772987 54.8309778 103.07766678 54.83174397 102.22245026 54.83253335 C100.53619383 54.83413198 98.84993742 54.83575304 97.16368103 54.83739631 C81.35155204 54.85165411 65.53956799 54.83526062 49.72746277 54.80839448 C36.15987004 54.78605564 22.59249121 54.78993576 9.02490234 54.81298828 C-6.73062665 54.83974576 -22.48602861 54.85028081 -38.24157715 54.83492696 C-39.92163084 54.83333422 -41.60168455 54.83176236 -43.28173828 54.83021164 C-44.10835716 54.82944026 -44.93497604 54.82866888 -45.78664398 54.82787413 C-51.61186268 54.82355697 -57.43700081 54.83084402 -63.26220703 54.84260941 C-70.36123437 54.85663239 -77.45998528 54.8528389 -84.55898094 54.82620569 C-88.1810973 54.81306452 -91.80275278 54.8079196 -95.42486572 54.82445145 C-99.35072451 54.84209865 -103.27582858 54.82102846 -107.20166016 54.79605103 C-108.92023224 54.81278144 -108.92023224 54.81278144 -110.67352295 54.82984984 C-119.26487847 54.72349442 -119.26487847 54.72349442 -122.96948242 51.76402855 C-125.9178941 48.43093811 -126.24067288 46.60505233 -126.44775391 42.31347656 C-126.19807806 39.25633458 -125.24252147 37.48356534 -123.27197266 35.16113281 C-119.64745151 32.74478538 -116.96236818 32.85488462 -112.77124023 32.84228516 C-112.01002365 32.83223953 -111.24880707 32.82219391 -110.46452332 32.81184387 C-107.94852453 32.78095397 -105.43263242 32.76396077 -102.91650391 32.74707031 C-101.17200295 32.72836332 -99.42751109 32.70879026 -97.68302917 32.68838501 C-93.09145462 32.63700824 -88.4998507 32.59741225 -83.90814209 32.5602417 C-79.22270412 32.52023677 -74.53738884 32.46912843 -69.85205078 32.41894531 C-60.65877753 32.3221204 -51.46543508 32.23773665 -42.27197266 32.16113281 C-41.93586975 31.33140961 -41.59976685 30.5016864 -41.253479 29.64682007 C-40.8087323 28.5614798 -40.3639856 27.47613953 -39.90576172 26.35791016 C-39.46653381 25.28068695 -39.02730591 24.20346375 -38.57476807 23.09359741 C-34.23882512 13.33381541 -24.74718293 6.15496459 -14.95947266 2.34863281 C-9.69437212 0.65309196 -5.58284771 0.02907487 0 0 Z M-16.27197266 28.16113281 C-17.75697266 30.63613281 -17.75697266 30.63613281 -19.27197266 33.16113281 C13.72802734 33.16113281 46.72802734 33.16113281 80.72802734 33.16113281 C76.87002129 27.04210319 76.87002129 27.04210319 71.72802734 23.78613281 C71.08865234 23.48964844 70.44927734 23.19316406 69.79052734 22.88769531 C65.35435019 21.32495109 61.12535065 21.02917222 56.4440918 21 C55.19541824 20.99039246 53.94674469 20.98078491 52.66023254 20.97088623 C51.30392644 20.96603637 49.94761819 20.961758 48.59130859 20.95800781 C47.90229147 20.95518044 47.21327435 20.95235306 46.50337791 20.94944 C42.85438025 20.93448084 39.20542176 20.92523175 35.55639648 20.92089844 C31.81209453 20.91543009 28.0681592 20.89142771 24.32397175 20.86292648 C21.42322287 20.84417524 18.52255993 20.83908784 15.6217556 20.83756256 C14.24283032 20.83456169 12.86390561 20.82662141 11.48504066 20.81337738 C1.65910666 20.72576303 -8.96452911 20.63225159 -16.27197266 28.16113281 Z " fill="#000000" transform="translate(225.27197265625,92.8388671875)"/>
<path d="M0 0 C3.52185256 1.97678176 5.69957163 4.0987149 7 8 C7.09658886 9.76252807 7.13494647 11.52849127 7.14044189 13.2936554 C7.14900711 14.94021622 7.14900711 14.94021622 7.15774536 16.62004089 C7.15886322 17.82477554 7.15998108 19.02951019 7.16113281 20.27075195 C7.16609772 21.53927002 7.17106262 22.80778809 7.17617798 24.11474609 C7.1892941 27.59626471 7.19574545 31.07776406 7.20018864 34.55930352 C7.20312078 36.73515281 7.20722587 38.91099685 7.21169281 41.08684349 C7.225366 47.89666479 7.23503339 54.70647406 7.2388947 61.51630813 C7.24337443 69.3733142 7.26091898 77.23014622 7.2898953 85.08709937 C7.31152335 91.16279083 7.32159959 97.23843337 7.32293582 103.31416291 C7.3239831 106.94172654 7.32987422 110.56912651 7.34775543 114.19664955 C7.36732236 118.244895 7.3629427 122.29277693 7.35644531 126.34106445 C7.3656601 127.53972641 7.37487488 128.73838837 7.3843689 129.97337341 C7.33222766 140.32986761 7.33222766 140.32986761 4 145 C-0.22994616 147.8199641 -4.03220448 147.79231188 -9 147 C-12.34625024 144.47323961 -13.67977847 142.96066458 -15 139 C-15.09659938 137.23522689 -15.13494696 135.46702187 -15.14044189 133.69961548 C-15.14615204 132.6004631 -15.15186218 131.50131073 -15.15774536 130.36885071 C-15.15886322 129.16254501 -15.15998108 127.95623932 -15.16113281 126.71337891 C-15.16858017 124.80819237 -15.16858017 124.80819237 -15.17617798 122.86451721 C-15.1892933 119.37893363 -15.19574512 115.89336931 -15.20018864 112.40776491 C-15.20312049 110.2299133 -15.20722549 108.05206695 -15.21169281 105.87421799 C-15.22536485 99.05959333 -15.2350332 92.24498069 -15.2388947 85.43034327 C-15.24337625 77.56483725 -15.26092976 69.69950493 -15.2898953 61.83405173 C-15.31151104 55.75328039 -15.32159891 49.67255794 -15.32293582 43.5917486 C-15.32398384 39.96030459 -15.32989097 36.32902394 -15.34775543 32.69762039 C-15.36729599 28.64677636 -15.36294761 24.59629608 -15.35644531 20.54541016 C-15.3656601 19.34315292 -15.37487488 18.14089569 -15.3843689 16.90220642 C-15.37879974 15.7974144 -15.37323059 14.69262238 -15.36749268 13.55435181 C-15.36895924 12.59681818 -15.3704258 11.63928455 -15.3719368 10.65273476 C-14.81760447 6.69911508 -12.99715037 4.07101336 -10.3125 1.1875 C-6.88870146 -0.57066682 -3.70750322 -0.77565806 0 0 Z " fill="#000000" transform="translate(260,219)"/>
<path d="M0 0 C3.5386994 1.65139305 4.81070153 2.71605229 7 6 C8.46489164 19.59936219 5.87896188 33.87360752 4.4453125 47.375 C4.18056591 49.91506891 3.91632283 52.45519035 3.65255737 54.99536133 C3.10094807 60.29089755 2.54411158 65.58584581 1.98291016 70.88037109 C1.33598576 76.98437455 0.69915551 83.08936847 0.067608 89.19498062 C-0.54380082 95.10360208 -1.16235466 101.01145882 -1.78406143 106.91900635 C-2.0465622 109.41942926 -2.30728861 111.92003912 -2.56618881 114.4208374 C-2.92845551 117.91014418 -3.29882678 121.398498 -3.67138672 124.88671875 C-3.77640503 125.91332108 -3.88142334 126.9399234 -3.98962402 127.99763489 C-5.41463666 141.12638878 -5.41463666 141.12638878 -9.0625 145.4375 C-13.10477414 147.58764582 -16.51136371 147.82942192 -21 147 C-23.87029869 145.20606332 -25.49131638 144.01736724 -27 141 C-27.46763274 133.42166127 -26.73514205 125.8819359 -25.93017578 118.35327148 C-25.75943039 116.69246552 -25.75943039 116.69246552 -25.5852356 114.99810791 C-25.21088713 111.37182716 -24.82835894 107.74646522 -24.4453125 104.12109375 C-24.18070147 101.58248066 -23.91645568 99.04382949 -23.65255737 96.50514221 C-23.09964049 91.19843369 -22.54285796 85.89215128 -21.98291016 80.58618164 C-21.33819595 74.47641889 -20.70092217 68.36591464 -20.067608 62.25496048 C-19.45476501 56.3433064 -18.83651885 50.43222674 -18.21593857 44.52137947 C-17.95387263 42.0205994 -17.69314587 39.5196786 -17.43381119 37.01861382 C-17.07003377 33.51768294 -16.70012293 30.01745168 -16.32861328 26.51733398 C-16.22359497 25.49523331 -16.11857666 24.47313263 -16.01037598 23.4200592 C-14.07768285 5.42944293 -14.07768285 5.42944293 -10.3125 1.875 C-6.41861549 -0.32908557 -4.40672239 -0.6409778 0 0 Z " fill="#000000" transform="translate(329,219)"/>
<path d="M0 0 C3.51686051 1.99067576 5.43928633 3.2047035 6.65324211 7.09155464 C7.81232174 13.5104403 8.65487424 19.92250691 9.32861328 26.40966797 C9.44594818 27.50375977 9.56328308 28.59785156 9.68417358 29.72509766 C10.06765682 33.31363878 10.4442879 36.90285772 10.8203125 40.4921875 C11.08626935 43.00507985 11.35245759 45.51794772 11.61886597 48.03079224 C12.17499679 53.28729122 12.72767021 58.54414302 13.27783203 63.80126953 C13.91084183 69.84927945 14.55182285 75.89640651 15.196787 81.94315231 C15.82070992 87.79555059 16.43757248 93.64867523 17.05169296 99.50210953 C17.3121032 101.9764648 17.57443527 104.45061864 17.83877945 106.92455673 C18.20860686 110.39295004 18.57036429 113.86209818 18.93017578 117.33154297 C19.03924255 118.3386734 19.14830933 119.34580383 19.26068115 120.38345337 C21.16258249 139.02360976 21.16258249 139.02360976 18.125 144.1875 C14.51926487 147.26297997 11.87143249 147.34761145 7.2578125 147.2734375 C3.76797504 146.85079283 2.24808639 145.65682937 0 143 C-2.09439811 137.07694364 -2.69175224 131.11232855 -3.32861328 124.88671875 C-3.44594818 123.78813034 -3.56328308 122.68954193 -3.68417358 121.55766296 C-4.06927791 117.93491804 -4.44515259 114.31128727 -4.8203125 110.6875 C-5.08617276 108.15507662 -5.35236236 105.62268779 -5.61886597 103.09033203 C-6.17603405 97.78151298 -6.72861709 92.47224322 -7.27783203 87.16259766 C-7.90899322 81.06168638 -8.55028194 74.9619022 -9.196787 68.86259937 C-9.82210466 62.95963357 -10.43860936 57.0557696 -11.05169296 51.15151978 C-11.31166379 48.65727116 -11.57398085 46.16326585 -11.83877945 43.66952515 C-15.57220049 8.41440881 -15.57220049 8.41440881 -12.16189575 3.17724609 C-8.5288581 -0.48158761 -4.97138475 -0.50556455 0 0 Z " fill="#000000" transform="translate(190,219)"/>
</svg>
