<?xml version="1.0" encoding="UTF-8"?>
<svg version="1.1" xmlns="http://www.w3.org/2000/svg" width="512" height="512">
<path d="M0 0 C0.82982875 -0.00445784 1.6596575 -0.00891569 2.51463258 -0.01350862 C3.87424858 -0.01323207 3.87424858 -0.01323207 5.26133156 -0.01294994 C6.22831777 -0.01662663 7.19530399 -0.02030332 8.19159281 -0.02409142 C11.44039983 -0.03512794 14.68917486 -0.03897202 17.93799782 -0.04278088 C20.26379943 -0.0490454 22.58960004 -0.05569219 24.91539955 -0.0626936 C31.23974054 -0.08010074 37.56407398 -0.09065397 43.88843298 -0.09889913 C47.83771172 -0.10404847 51.7869881 -0.11012414 55.73626518 -0.11641026 C66.67210472 -0.13327647 77.60794218 -0.14791271 88.54379272 -0.155159 C91.3801098 -0.15706884 94.21642687 -0.15898919 97.05274391 -0.16094494 C97.75768374 -0.16142868 98.46262358 -0.16191242 99.18892522 -0.16241082 C110.61425312 -0.17071521 122.03947646 -0.19606123 133.46475868 -0.22852562 C145.19670514 -0.26158959 156.92859842 -0.27960701 168.66059172 -0.28280324 C175.24703055 -0.28515724 181.83330396 -0.29416387 188.41969872 -0.31926441 C194.61342577 -0.34248782 200.8068778 -0.34680134 207.00063705 -0.33650303 C209.2750604 -0.33600621 211.54949704 -0.34236932 213.82387924 -0.35605907 C216.9266532 -0.37369179 220.0284308 -0.36671391 223.13120461 -0.35352612 C224.03315382 -0.36449536 224.93510304 -0.37546461 225.86438406 -0.38676625 C231.3407013 -0.33049176 234.48474292 0.47253856 238.82325172 4.13422108 C242.87955571 9.35681965 242.59722716 14.7876225 241.82325172 21.13422108 C239.65039819 25.72135631 237.38138762 27.99696207 232.82325172 30.13422108 C229.78168495 30.56748762 226.77083342 30.54168626 223.70270729 30.51949024 C222.78190243 30.52472594 221.86109756 30.52996163 220.91238952 30.53535599 C217.82557763 30.54932948 214.73918312 30.5420128 211.65235329 30.53485584 C209.43964199 30.54059773 207.22693382 30.54768024 205.01423073 30.55600452 C200.24792771 30.57112729 195.48173677 30.57689103 190.71541023 30.57547665 C183.1765666 30.5734445 175.63787378 30.59300054 168.0990696 30.61565113 C157.52699186 30.64524671 146.95493174 30.66584341 136.38282204 30.67792225 C135.7121314 30.67869174 135.04144076 30.67946123 134.35042617 30.68025403 C131.63325776 30.68335601 128.91608932 30.68643883 126.19892086 30.68949408 C118.72766616 30.69801684 111.2564157 30.70892008 103.78516579 30.720891 C103.11650703 30.72195902 102.44784828 30.72302704 101.75892714 30.72412742 C90.59531499 30.74224304 79.43172921 30.76829725 68.26814437 30.79902214 C60.77664127 30.81892941 53.28521682 30.82852288 45.7936883 30.82997429 C41.12793179 30.83272862 36.46221854 30.84356789 31.79648018 30.85648441 C29.63620849 30.8607569 27.47592692 30.86162896 25.31565285 30.85880947 C22.36091266 30.85539616 19.40644417 30.86422021 16.45173073 30.87593555 C15.17713851 30.86996391 15.17713851 30.86996391 13.87679696 30.86387163 C5.03071933 30.92580314 -3.29810464 32.21678528 -10.17674828 38.13422108 C-17.60916534 46.77393431 -17.47056706 57.47160312 -17.43071556 68.30438709 C-17.43383554 69.61246358 -17.43695552 70.92054007 -17.44017005 72.26825523 C-17.44848324 75.8790845 -17.44440868 79.48980742 -17.43819761 83.10063696 C-17.43365984 87.00253503 -17.44066345 90.90441522 -17.44615746 94.8063097 C-17.45503897 102.44224403 -17.45313498 110.07813899 -17.44733217 117.71407485 C-17.4428108 123.9213571 -17.44220484 130.12862833 -17.44437981 136.33591175 C-17.44468627 137.22020943 -17.44499274 138.10450711 -17.44530849 139.01560169 C-17.44594796 140.81217631 -17.44659639 142.60875092 -17.44725367 144.40532553 C-17.45295333 161.24187707 -17.44640479 178.07840682 -17.43565294 194.91495478 C-17.42671776 209.35361436 -17.42826991 223.79224177 -17.43749046 238.23090076 C-17.44819953 255.00824322 -17.45240404 271.78556659 -17.44626594 288.56291199 C-17.44562885 290.35278479 -17.44500011 292.14265759 -17.44437981 293.9325304 C-17.44391698 295.25342138 -17.44391698 295.25342138 -17.4434448 296.60099703 C-17.44171977 302.7990169 -17.44462883 308.99702462 -17.44933891 315.19504261 C-17.45495481 322.75093072 -17.45341638 330.30677728 -17.44277743 337.86266065 C-17.43753027 341.71591843 -17.43544766 345.569107 -17.44207573 349.42236423 C-17.44915802 353.60298779 -17.44068703 357.78343742 -17.43071556 361.96405506 C-17.435177 363.17680387 -17.43963845 364.38955267 -17.44423509 365.63905144 C-17.39938334 375.33140472 -16.74324258 384.50108811 -10.17674828 392.13422108 C-1.53703504 399.56663814 9.16063377 399.42803986 19.99341774 399.38818836 C21.30149423 399.39130834 22.60957071 399.39442832 23.95728588 399.39764285 C27.56811515 399.40595604 31.17883806 399.40188148 34.78966761 399.39567041 C38.69156568 399.39113264 42.59344586 399.39813625 46.49534035 399.40363026 C54.13127468 399.41251177 61.76716964 399.41060778 69.4031055 399.40480497 C75.61038774 399.4002836 81.81765898 399.39967764 88.0249424 399.40185261 C89.35138892 399.40231231 89.35138892 399.40231231 90.70463234 399.40278129 C92.50120696 399.40342076 94.29778157 399.40406919 96.09435618 399.40472648 C112.93090772 399.41042613 129.76743746 399.40387759 146.60398543 399.39312574 C161.042645 399.38419056 175.48127242 399.38574271 189.91993141 399.39496326 C206.69727387 399.40567233 223.47459724 399.40987684 240.25194263 399.40373874 C242.04181544 399.40310166 243.83168824 399.40247291 245.62156105 399.40185261 C246.50215504 399.40154406 247.38274902 399.40123551 248.29002768 399.4009176 C254.48804754 399.39919258 260.68605527 399.40210163 266.88407326 399.40681171 C274.43996136 399.41242761 281.99580793 399.41088918 289.55169129 399.40025023 C293.40494907 399.39500307 297.25813765 399.39292046 301.11139488 399.39954853 C305.29201844 399.40663082 309.47246807 399.39815983 313.65308571 399.38818836 C314.86583451 399.39264981 316.07858332 399.39711125 317.32808208 399.40170789 C327.02043536 399.35685614 336.19011875 398.70071538 343.82325172 392.13422108 C350.38247794 384.5095368 351.12805088 375.20654905 351.07480812 365.5124712 C351.07777826 364.58613194 351.0807484 363.65979267 351.08380854 362.70538253 C351.09140263 359.62406194 351.08497353 356.54293457 351.07862282 353.46161366 C351.08137477 351.24344727 351.0850559 349.02528187 351.08959389 346.80711842 C351.09768763 342.04198658 351.09987899 337.27690161 351.09764671 332.51176357 C351.09480908 324.97764864 351.10918107 317.44362712 351.12662697 309.90953541 C351.14979395 299.34877407 351.16892635 288.78801723 351.18165016 278.22723866 C351.18246053 277.55802309 351.1832709 276.88880753 351.18410583 276.19931271 C351.19533795 266.69313258 351.20061154 257.18695832 351.20349295 247.68077245 C351.20369694 247.01064731 351.20390093 246.34052218 351.2041111 245.65009022 C351.20431104 244.98078615 351.20451097 244.31148208 351.20471697 243.62189607 C351.20845035 232.45928063 351.22776596 221.29674154 351.25920546 210.1341669 C351.27943982 202.64343173 351.28178023 195.15297009 351.27092528 187.66221869 C351.26832167 183.00639631 351.28230439 178.35073393 351.30100632 173.69495296 C351.30633656 171.53503216 351.30481739 169.37508204 351.29597092 167.21517277 C351.28487278 164.26807123 351.29825469 161.32205506 351.31772804 158.37502003 C351.30860339 157.51928184 351.29947873 156.66354365 351.29007757 155.781874 C351.35896852 150.42904213 352.27624018 147.38632053 355.82325172 143.13422108 C361.0458503 139.0779171 366.47665315 139.36024564 372.82325172 140.13422108 C377.33659437 142.27212022 379.76610499 144.58684408 381.82325172 149.13422108 C382.91308696 154.14805755 382.96650288 159.00507284 382.95696449 164.10686207 C382.95923005 164.99978665 382.96149561 165.89271123 382.96382982 166.81269413 C382.9701506 169.79935891 382.96934166 172.78597809 382.9685154 175.77264881 C382.97150821 177.91665677 382.97491103 180.06066419 382.97869301 182.20467091 C382.98752791 188.027454 382.989871 193.85022239 382.99050879 199.67301154 C382.99121996 203.31515865 382.9933556 206.95730203 382.99600601 210.5994482 C383.00526 223.31864248 383.00934111 236.03782628 383.00855446 248.75702381 C383.00795468 260.59022125 383.01848669 272.42337296 383.03429812 284.25655884 C383.04740573 294.4309299 383.05273696 304.60528609 383.05209905 314.77966553 C383.05184487 320.84931296 383.0546513 326.91891979 383.0652771 332.98855877 C383.07501154 338.70541405 383.07500082 344.4221904 383.06776047 350.13904858 C383.06672102 352.22746618 383.06903911 354.31588883 383.07512093 356.40429783 C383.13673994 379.04591209 381.74032775 398.43265344 365.51075172 415.88422108 C356.7283629 424.21572833 344.19916554 430.24731757 332.02343941 430.26844215 C330.83155431 430.2729 329.63966922 430.27735784 328.41166639 430.28195077 C327.10079888 430.28176641 325.78993136 430.28158205 324.43934059 430.2813921 C323.03375793 430.28469186 321.62817621 430.28841767 320.22259569 430.29253358 C316.35546077 430.30254911 312.48834137 430.30626966 308.62119532 430.30892289 C304.45193796 430.31282733 300.28269289 430.32240566 296.11344337 430.33113575 C286.04155224 430.35089749 275.96966011 430.36096657 265.89775443 430.36986354 C261.15342185 430.37424742 256.40909038 430.37961402 251.66475868 430.38485241 C235.89073608 430.40186535 220.11671416 430.41635875 204.34268379 430.42360115 C200.24929236 430.42551102 196.15590094 430.42743135 192.06250954 430.42938709 C190.53643876 430.4301127 190.53643876 430.4301127 188.97953826 430.43085297 C172.50468861 430.43915035 156.02991163 430.46448203 139.55509371 430.49696777 C122.63636201 430.53005648 105.71766721 430.5480516 88.79890299 430.55124539 C79.30147515 430.55340894 69.80415325 430.56213481 60.30675697 430.58770657 C52.21685167 430.60943841 44.12707805 430.61745182 36.03714687 430.60773978 C31.91208669 430.6032021 27.78729806 430.60505006 23.66227531 430.62450123 C19.87938811 430.64218437 16.0969695 430.64109395 12.31407696 430.62560394 C10.31095813 430.62212115 8.30783408 430.6382157 6.3047843 430.65520841 C-8.58313021 430.54986773 -21.92896758 425.22061647 -32.92674828 415.07172108 C-44.55043779 402.68720825 -48.64194012 388.70968997 -48.56442833 372.02878284 C-48.56860767 370.61801858 -48.57408846 369.20725768 -48.58074814 367.79650295 C-48.59514291 363.94285778 -48.59097685 360.08942757 -48.58358133 356.23577094 C-48.57883709 352.07069559 -48.59137059 347.90566591 -48.60159874 343.74060535 C-48.61876762 335.58977032 -48.61963071 327.43901245 -48.61438584 319.28816403 C-48.61033928 312.66092294 -48.61179346 306.03370459 -48.61713409 299.40646458 C-48.61788252 298.46211061 -48.61863094 297.51775664 -48.61940204 296.54478588 C-48.62093357 294.62613599 -48.62247191 292.7074861 -48.62401701 290.78883623 C-48.63773518 272.80859355 -48.6323092 254.82839442 -48.6208318 236.84815274 C-48.61090053 220.41247518 -48.62383947 203.97691021 -48.64776599 187.54125001 C-48.67217056 170.6494384 -48.68176149 153.75767921 -48.67511326 136.86585033 C-48.67162401 127.38864516 -48.67383365 117.91152656 -48.69136429 108.43433475 C-48.70610326 100.36651872 -48.70669958 92.29885023 -48.68929338 84.23103704 C-48.68079488 80.11809732 -48.67860549 76.00542097 -48.69394493 71.89249516 C-48.70783662 68.12093239 -48.70297205 64.3498575 -48.68370569 60.57832263 C-48.67819609 58.58146787 -48.69217974 56.58458799 -48.7070598 54.58778107 C-48.58204175 39.18649572 -43.10451077 26.64675294 -32.62206078 15.48968983 C-24.13332219 7.3128378 -12.12704875 0.03032821 0 0 Z " fill="#000000" transform="translate(48.176748275756836,81.86577892303467)"/>
<path d="M0 0 C10.08429666 5.14012049 17.89710925 13.46192713 25.81225586 21.37915039 C27.68381908 23.24632771 29.57083841 25.09687767 31.45898438 26.94726562 C40.86440416 36.26275287 49.58193154 45.51824893 49.88110352 59.50170898 C49.82814179 78.46836376 39.86706517 87.21296846 26.93640137 100.16172791 C26.01626235 101.08695474 25.09612334 102.01218157 24.14810133 102.96544558 C21.62266367 105.50461882 19.09421403 108.04077301 16.56516814 110.57635176 C14.38966441 112.75828022 12.21598458 114.94202128 10.0423094 117.12577116 C2.89437706 124.30680699 -4.25926773 131.48213722 -11.41455913 138.65583953 C-13.27797208 140.52405738 -15.14129636 142.39236362 -17.00460243 144.26068807 C-28.59397601 155.8810095 -40.18549472 167.49918843 -51.78194427 179.11244869 C-54.45963972 181.79409301 -57.13730801 184.47576443 -59.81494141 187.1574707 C-60.48037942 187.82391708 -61.14581744 188.49036346 -61.83142024 189.17700518 C-72.6303048 199.99292689 -83.41707208 210.82085204 -94.19906121 221.6536135 C-105.28378953 232.79010812 -116.37980897 243.91525291 -127.48682165 255.02952296 C-133.71702788 261.26438897 -139.94210588 267.50419573 -146.1544342 273.75687981 C-151.43920433 279.0759415 -156.73403431 284.38472186 -162.0423094 289.68033087 C-164.74883988 292.38103528 -167.45029246 295.08634901 -170.1388073 297.8049984 C-173.05521645 300.75382886 -175.99442816 303.67883149 -178.93640137 306.60215759 C-179.77951008 307.46206124 -180.6226188 308.32196488 -181.49127626 309.20792621 C-186.48335553 314.12123041 -190.62769432 316.94223328 -197.5 318.4375 C-198.64705414 318.71941696 -199.79410828 319.00133392 -200.97592163 319.29179382 C-202.07747589 319.51607559 -203.17903015 319.74035736 -204.31396484 319.97143555 C-205.57912933 320.23147873 -206.84429382 320.49152191 -208.14779663 320.75944519 C-209.50208897 321.03147458 -210.85647164 321.30305466 -212.2109375 321.57421875 C-213.6290771 321.86120353 -215.04717737 322.14838272 -216.46524048 322.43574524 C-219.42460056 323.03386523 -222.384841 323.6273804 -225.34570312 324.21801758 C-229.11215519 324.97006846 -232.87539485 325.7370376 -236.63802147 326.50796795 C-239.56219481 327.10472599 -242.48827997 327.69165459 -245.41496658 328.27594948 C-246.80211218 328.55441483 -248.18859151 328.83622357 -249.57432175 329.12164879 C-269.66891923 333.24855636 -269.66891923 333.24855636 -276.9375 329.8125 C-283.1896192 324.01785294 -283.1896192 324.01785294 -283.76141357 319.26423645 C-283.83822587 310.72607629 -282.26221638 302.59062727 -280.578125 294.26171875 C-280.27329445 292.72250164 -279.9690034 291.1831776 -279.66522217 289.64375305 C-279.02993039 286.43772921 -278.38683401 283.23339584 -277.73828125 280.0300293 C-276.9104366 275.93684277 -276.10454294 271.83968177 -275.30464554 267.7409544 C-274.68274765 264.5690758 -274.0482421 261.39981807 -273.41005707 258.23118019 C-273.10774592 256.72141009 -272.80954794 255.21081 -272.51566315 253.69937706 C-272.10312586 251.58669642 -271.6734061 249.47820388 -271.23925781 247.36987305 C-270.99943176 246.17283249 -270.75960571 244.97579193 -270.51251221 243.74247742 C-268.09693778 235.85771427 -262.0519362 230.69958223 -256.35458374 225.01792908 C-255.40913667 224.06802568 -254.46412003 223.1176937 -253.51949561 222.16697222 C-250.92997413 219.56330801 -248.3342619 216.96589451 -245.73744035 214.36951387 C-242.93483791 211.56525996 -240.13795826 208.75530773 -237.340271 205.94615173 C-231.22563713 199.80869556 -225.10357335 193.67868666 -218.98004866 187.55010295 C-215.15483237 183.72162684 -211.33125075 179.89152107 -207.50801468 176.06106758 C-196.91690104 165.4503927 -186.32421278 154.84129709 -175.72476768 144.23894405 C-175.0468732 143.560862 -174.36897872 142.88277995 -173.67054198 142.18414995 C-172.2963585 140.80960024 -170.92217376 139.43505179 -169.54798774 138.06050461 C-168.86586761 137.37820166 -168.18374747 136.69589872 -167.48095703 135.99291992 C-166.4565226 134.96821467 -166.4565226 134.96821467 -165.41139252 133.9228083 C-154.3445997 122.85247357 -143.28959735 111.77044564 -132.23974209 100.68320709 C-120.88784348 89.2932119 -109.52659553 77.91261432 -98.1557833 66.54150015 C-91.77449095 60.1596236 -85.39719911 53.77386262 -79.03010178 47.37782097 C-73.60882159 41.93200908 -68.17898115 36.49491587 -62.737909 31.06887572 C-59.96375454 28.30188233 -57.19374475 25.53105701 -54.4345665 22.74912262 C-51.9049062 20.19880033 -49.3638209 17.66045483 -46.81343384 15.13086481 C-45.46460232 13.78715401 -44.12799916 12.43120196 -42.7919811 11.07475036 C-31.4094448 -0.1522139 -15.66775744 -5.79187242 0 0 Z M-20.70703125 33.15625 C-21.83334961 34.30673828 -21.83334961 34.30673828 -22.98242188 35.48046875 C-23.75134766 36.29128906 -24.52027344 37.10210937 -25.3125 37.9375 C-26.10076172 38.74832031 -26.88902344 39.55914062 -27.70117188 40.39453125 C-29.64581173 42.39809959 -31.57785065 44.41238402 -33.5 46.4375 C-32.17005617 49.39015112 -30.72220684 51.46100216 -28.42724609 53.73730469 C-27.80675385 54.35764587 -27.1862616 54.97798706 -26.54696655 55.61712646 C-25.87920197 56.27456848 -25.21143738 56.9320105 -24.5234375 57.609375 C-23.83819 58.2917926 -23.1529425 58.97421021 -22.44692993 59.67730713 C-20.26094155 61.85211598 -18.06809571 64.01986072 -15.875 66.1875 C-14.39016745 67.6622999 -12.90578694 69.13755506 -11.421875 70.61328125 C-7.7864709 74.22665448 -4.14490176 77.83370853 -0.5 81.4375 C4.28494888 79.14163683 7.50377392 75.83935838 11.25 72.125 C11.94738281 71.46048828 12.64476562 70.79597656 13.36328125 70.11132812 C14.02199219 69.45970703 14.68070312 68.80808594 15.359375 68.13671875 C15.96233398 67.54721436 16.56529297 66.95770996 17.18652344 66.3503418 C18.6259761 64.48662469 18.6259761 64.48662469 19.09545898 62.14697266 C18.14294171 57.81280426 15.21088682 55.43537823 12.11328125 52.38671875 C11.45925827 51.72791214 10.80523529 51.06910553 10.13139343 50.39033508 C8.74616531 49.00170661 7.35461126 47.61936406 5.95727539 46.24291992 C3.82023219 44.13263537 1.71114353 41.99703946 -0.39648438 39.85742188 C-1.74579558 38.51141474 -3.096657 37.16695947 -4.44921875 35.82421875 C-5.0796257 35.18369064 -5.71003265 34.54316254 -6.35954285 33.88322449 C-9.78410292 30.50671801 -9.78410292 30.50671801 -14.17773438 28.8059082 C-17.20796338 29.63004639 -18.53226976 30.89848234 -20.70703125 33.15625 Z M-59.47264671 72.26195908 C-60.11024906 72.89202008 -60.7478514 73.52208108 -61.40477502 74.17123485 C-62.11185936 74.87509295 -62.8189437 75.57895105 -63.54745483 76.30413818 C-64.29348264 77.04296148 -65.03951045 77.78178477 -65.80814517 78.54299664 C-68.32949915 81.04146915 -70.84714097 83.54364879 -73.36474609 86.04589844 C-75.16280385 87.82951716 -76.9610202 89.61297602 -78.75938416 91.39628601 C-95.19922716 107.70565691 -111.60697732 124.0474708 -128.00740623 140.3964653 C-130.20377146 142.58582148 -132.40019553 144.77511861 -134.59667969 146.96435547 C-135.14260976 147.50849025 -135.68853983 148.05262502 -136.25101323 148.61324874 C-145.08458176 157.41678558 -153.93535084 166.20282288 -162.79306678 174.98205611 C-171.88729702 183.99637252 -180.96434924 193.02771241 -190.02537405 202.07540727 C-195.11296181 207.15459635 -200.2079207 212.22588541 -205.32252121 217.27788544 C-210.13808368 222.03454036 -214.93018113 226.81363613 -219.70750618 231.60874367 C-221.4625025 233.36286205 -223.22519694 235.10931809 -224.99614143 236.84733391 C-227.41838285 239.22686292 -229.81104815 241.63277232 -232.19857788 244.04705811 C-232.90120077 244.72414755 -233.60382367 245.40123699 -234.32773817 246.09884429 C-239.67384262 251.59910768 -241.16621658 256.98643099 -242.5 264.4375 C-242.79236903 265.76415797 -243.08876525 267.08994302 -243.39135742 268.41430664 C-244.15981004 272.10892173 -244.92721364 275.80369421 -245.6875 279.5 C-245.96273927 280.81708893 -246.2381292 282.13414639 -246.51367188 283.45117188 C-246.77083984 284.69576172 -247.02800781 285.94035156 -247.29296875 287.22265625 C-247.5252417 288.34551025 -247.75751465 289.46836426 -247.99682617 290.62524414 C-248.58806242 293.45353131 -248.58806242 293.45353131 -248.5 296.4375 C-247.71370272 296.29976984 -246.92740543 296.16203968 -246.11728096 296.02013588 C-240.42044391 295.07545343 -234.96504613 294.37020135 -229.18600464 294.36532593 C-201.56908368 293.09463259 -184.73559335 270.80041482 -166.78187902 252.20429603 C-161.77826812 247.02654095 -156.70483755 241.91941708 -151.62715064 236.8144602 C-142.57815855 227.71327173 -133.58377897 218.56009718 -124.62353516 209.37158203 C-115.93275336 200.4596305 -107.21647017 191.57390028 -98.46533203 182.72119141 C-97.92360655 182.17316056 -97.38188107 181.62512972 -96.82373966 181.06049187 C-94.10520756 178.31063304 -91.38617339 175.56127128 -88.66688943 172.81215596 C-66.19955296 150.09705239 -43.82178366 127.2956815 -21.5 104.4375 C-22.46244034 103.31006984 -23.42552685 102.18319127 -24.38888836 101.05654812 C-24.92513826 100.42895893 -25.46138816 99.80136973 -26.01388806 99.15476269 C-27.53282488 97.39956952 -29.0956678 95.71514975 -30.7355957 94.07250977 C-31.29249588 93.51245743 -31.84939606 92.95240509 -32.423172 92.37538147 C-33.00153305 91.79904465 -33.5798941 91.22270782 -34.17578125 90.62890625 C-34.78640915 90.01732162 -35.39703705 89.405737 -36.02616882 88.77561951 C-37.30308385 87.49802961 -38.58123993 86.22167897 -39.8605957 84.9465332 C-41.82816566 82.98437744 -43.79026732 81.0168648 -45.75195312 79.04882812 C-46.99707483 77.80436624 -48.24250616 76.56021406 -49.48828125 75.31640625 C-50.37100456 74.43064659 -50.37100456 74.43064659 -51.27156067 73.5269928 C-55.34878637 68.94836113 -55.34878637 68.94836113 -59.47264671 72.26195908 Z " fill="#000000" transform="translate(462.5,1.5625)"/>
</svg>
